<svg xmlns="http://www.w3.org/2000/svg" viewBox="0 0 178.27 91.27"><defs><style>.a,.b{fill:none;stroke:#5b9cd4;stroke-miterlimit:10;}.a{stroke-width:5px;}.b{stroke-width:2.5px;}</style></defs><title>logo_sad</title><line class="a" x1="178.27" y1="22.5" x2="138.27" y2="22.5"/><line class="a" x1="30.27" y1="22.5" x2="10.27" y2="22.5"/><line class="a" x1="136.77" x2="136.77" y2="45"/><line class="a" x1="135.27" y1="2.5" x2="35.27" y2="2.5"/><line class="a" x1="32.77" x2="32.77" y2="45"/><line class="a" x1="7.77" y1="10" x2="7.77" y2="35"/><line class="a" x1="107.27" y1="44.5" x2="62.27" y2="44.5"/><line class="a" x1="134.27" y1="42.5" x2="112.27" y2="42.5"/><line class="a" x1="57.27" y1="42.5" x2="35.27" y2="42.5"/><line class="a" x1="109.77" y1="47" x2="109.77" y2="22"/><line class="a" x1="59.77" y1="47" x2="59.77" y2="22"/><line class="b" x1="109.77" y1="5" x2="109.77" y2="13"/><line class="b" x1="101.77" y1="5" x2="101.77" y2="9"/><line class="b" x1="59.77" y1="5" x2="59.77" y2="13"/><line class="b" x1="85.77" y1="5" x2="85.77" y2="13"/><line class="b" x1="93.77" y1="5" x2="93.77" y2="9"/><line class="b" x1="76.77" y1="5" x2="76.77" y2="9"/><line class="b" x1="67.77" y1="5" x2="67.77" y2="9"/><circle class="b" cx="98.27" cy="34" r="3.5"/><circle class="b" cx="71.27" cy="34" r="3.5"/><path class="a" d="M184,143.25c-42-42-126-42-168,0" transform="translate(-14.23 -53.75)"/></svg>