<svg xmlns="http://www.w3.org/2000/svg" viewBox="0 0 400 400"><defs><style>.a5698816-22df-41a1-9eaa-3d1b0302758f{fill:#5b9bd5;}.\34 c89aa76-efaa-4ee3-84a4-31870a94d36d,.cdf632cb-37fa-4d61-a6a4-5544da7c6910{fill:none;stroke:#02225e;stroke-miterlimit:10;}.\34 c89aa76-efaa-4ee3-84a4-31870a94d36d{stroke-width:5px;}.cdf632cb-37fa-4d61-a6a4-5544da7c6910{stroke-width:2.5px;}.\35 a0b42d1-78bd-47b7-b0a3-f868b693484c{fill:#02225e;}.\33 b11f6d5-0dac-41ff-a49d-38a38fa7619c{fill:#fff;}</style></defs><title>logo-square</title><g id="3663cd56-60ae-4a05-84e4-c7d5aa48b846" data-name="Background"><rect class="a5698816-22df-41a1-9eaa-3d1b0302758f" x="0.45" y="0.12" width="400" height="400"/></g><g id="bb710eea-0095-4f06-98bf-81552d43ad4b" data-name="Spritze"><line class="4c89aa76-efaa-4ee3-84a4-31870a94d36d" x1="54.95" y1="20.12" x2="54.95" y2="60.12"/><line class="4c89aa76-efaa-4ee3-84a4-31870a94d36d" x1="54.95" y1="168.12" x2="54.95" y2="188.12"/><line class="4c89aa76-efaa-4ee3-84a4-31870a94d36d" x1="32.45" y1="61.62" x2="77.45" y2="61.62"/><line class="4c89aa76-efaa-4ee3-84a4-31870a94d36d" x1="34.95" y1="63.12" x2="34.95" y2="163.12"/><line class="4c89aa76-efaa-4ee3-84a4-31870a94d36d" x1="32.45" y1="165.62" x2="77.45" y2="165.62"/><line class="4c89aa76-efaa-4ee3-84a4-31870a94d36d" x1="42.45" y1="190.62" x2="67.45" y2="190.62"/><line class="4c89aa76-efaa-4ee3-84a4-31870a94d36d" x1="76.95" y1="91.12" x2="76.95" y2="136.12"/><line class="4c89aa76-efaa-4ee3-84a4-31870a94d36d" x1="74.95" y1="64.12" x2="74.95" y2="86.12"/><line class="4c89aa76-efaa-4ee3-84a4-31870a94d36d" x1="74.95" y1="141.12" x2="74.95" y2="163.12"/><line class="4c89aa76-efaa-4ee3-84a4-31870a94d36d" x1="79.45" y1="88.62" x2="54.45" y2="88.62"/><line class="4c89aa76-efaa-4ee3-84a4-31870a94d36d" x1="79.45" y1="138.62" x2="54.45" y2="138.62"/><line class="cdf632cb-37fa-4d61-a6a4-5544da7c6910" x1="37.45" y1="88.62" x2="45.45" y2="88.62"/><line class="cdf632cb-37fa-4d61-a6a4-5544da7c6910" x1="37.45" y1="96.62" x2="41.45" y2="96.62"/><line class="cdf632cb-37fa-4d61-a6a4-5544da7c6910" x1="37.45" y1="138.62" x2="45.45" y2="138.62"/><line class="cdf632cb-37fa-4d61-a6a4-5544da7c6910" x1="37.45" y1="112.62" x2="45.45" y2="112.62"/><line class="cdf632cb-37fa-4d61-a6a4-5544da7c6910" x1="37.45" y1="104.62" x2="41.45" y2="104.62"/><line class="cdf632cb-37fa-4d61-a6a4-5544da7c6910" x1="37.45" y1="121.62" x2="41.45" y2="121.62"/><line class="cdf632cb-37fa-4d61-a6a4-5544da7c6910" x1="37.45" y1="130.62" x2="41.45" y2="130.62"/><circle class="cdf632cb-37fa-4d61-a6a4-5544da7c6910" cx="66.45" cy="100.12" r="3.5"/><circle class="cdf632cb-37fa-4d61-a6a4-5544da7c6910" cx="66.45" cy="127.12" r="3.5"/></g><g id="f51f3333-0db3-4e50-a0f6-5457156f6d53" data-name="Text Outline"><path class="5a0b42d1-78bd-47b7-b0a3-f868b693484c" d="M213.52,165.91a2.61,2.61,0,0,1-.46,1.5,3.24,3.24,0,0,1-1.66,1.08,15.68,15.68,0,0,1-3.2.66,41.13,41.13,0,0,1-5.06.25,40.5,40.5,0,0,1-5-.25,14.69,14.69,0,0,1-3.15-.66,3.48,3.48,0,0,1-1.66-1.08,2.38,2.38,0,0,1-.5-1.5V78.51h-.17l-31.13,87.32a4,4,0,0,1-1.08,1.79,5.23,5.23,0,0,1-2,1.12,14.41,14.41,0,0,1-3.28.54c-1.33.08-2.93.12-4.81.12a47.06,47.06,0,0,1-4.82-.21,14.3,14.3,0,0,1-3.28-.66,6.16,6.16,0,0,1-2-1.12,3.22,3.22,0,0,1-1-1.58l-30-87.32H109v87.4a2.54,2.54,0,0,1-.46,1.5,3.25,3.25,0,0,1-1.7,1.08,16.5,16.5,0,0,1-3.19.66,50.22,50.22,0,0,1-10,0,15.57,15.57,0,0,1-3.19-.66,3.2,3.2,0,0,1-1.66-1.08,2.54,2.54,0,0,1-.46-1.5V70.21c0-2.83.75-5,2.24-6.48a8.11,8.11,0,0,1,6-2.24h14.28a30.22,30.22,0,0,1,6.55.62,12.67,12.67,0,0,1,4.73,2.08A11.67,11.67,0,0,1,125.44,68a26.86,26.86,0,0,1,2.33,5.85l23.24,64h.33L175.42,74a33,33,0,0,1,2.36-5.9,13.79,13.79,0,0,1,3-3.9,9.88,9.88,0,0,1,4-2.12,21.08,21.08,0,0,1,5.39-.62h14.69a11.62,11.62,0,0,1,3.86.58,6.67,6.67,0,0,1,2.66,1.7A7.48,7.48,0,0,1,213,66.51a11.67,11.67,0,0,1,.54,3.7Z"/><path class="5a0b42d1-78bd-47b7-b0a3-f868b693484c" d="M310.47,94.11a42.41,42.41,0,0,1-2.82,16,30.86,30.86,0,0,1-8.22,11.75,36.26,36.26,0,0,1-13.24,7.26,61.29,61.29,0,0,1-18.47,2.49h-9v34.28a2.3,2.3,0,0,1-.54,1.5,3.86,3.86,0,0,1-1.79,1.08,16.8,16.8,0,0,1-3.32.66,56.09,56.09,0,0,1-10.58,0,16.83,16.83,0,0,1-3.36-.66,3.56,3.56,0,0,1-1.75-1.08,2.44,2.44,0,0,1-.5-1.5V69.29q0-3.9,2-5.85a7.4,7.4,0,0,1,5.35-1.95h25.32c2.54,0,5,.1,7.26.29A77.31,77.31,0,0,1,285.15,63a36.56,36.56,0,0,1,9.76,3.52,29,29,0,0,1,8.42,6.52,27.14,27.14,0,0,1,5.31,9.21A36,36,0,0,1,310.47,94.11Zm-22.83,1.58a19.3,19.3,0,0,0-2-9.3,13.75,13.75,0,0,0-4.9-5.39,16.15,16.15,0,0,0-6.1-2.2,45.79,45.79,0,0,0-6.6-.46h-9.29v36.44h9.79a23.71,23.71,0,0,0,8.76-1.41,15,15,0,0,0,5.77-3.94,17.25,17.25,0,0,0,3.4-6.06A24.54,24.54,0,0,0,287.64,95.69Z"/><path class="5a0b42d1-78bd-47b7-b0a3-f868b693484c" d="M387.67,70.46a35.11,35.11,0,0,1-.21,4.19,9.66,9.66,0,0,1-.66,2.7,4.48,4.48,0,0,1-1,1.49,2,2,0,0,1-1.33.5H349.32v28.88h32.95a2.22,2.22,0,0,1,1.33.42,3.54,3.54,0,0,1,1,1.41,9.43,9.43,0,0,1,.66,2.66,41.11,41.11,0,0,1,0,8.3,10.68,10.68,0,0,1-.66,2.74,3.78,3.78,0,0,1-1,1.53,2.07,2.07,0,0,1-1.33.46H349.32v40a2.59,2.59,0,0,1-.5,1.58,3.8,3.8,0,0,1-1.79,1.12,15.74,15.74,0,0,1-3.36.7,56.09,56.09,0,0,1-10.58,0,15.21,15.21,0,0,1-3.36-.7,4.15,4.15,0,0,1-1.79-1.12,2.44,2.44,0,0,1-.54-1.58V68.38c0-2.43.63-4.19,1.87-5.27a6.79,6.79,0,0,1,4.61-1.62h50.55a2.07,2.07,0,0,1,1.33.46,3.92,3.92,0,0,1,1,1.49,10.22,10.22,0,0,1,.66,2.78A36.26,36.26,0,0,1,387.67,70.46Z"/><path class="3b11f6d5-0dac-41ff-a49d-38a38fa7619c" d="M126.51,290.28q0,15.63-4.09,26.76a45.39,45.39,0,0,1-11.73,18.15A46.9,46.9,0,0,1,92.1,345.51q-10.93,3.3-26.06,3.3H38.88A7.18,7.18,0,0,1,34,347.1q-2-1.73-2-5.58V242.37q0-3.85,2-5.58a7.18,7.18,0,0,1,4.87-1.71H68.06q15.21,0,25.8,3.56a46.65,46.65,0,0,1,17.84,10.55,45.08,45.08,0,0,1,11,17.27A68.83,68.83,0,0,1,126.51,290.28Zm-23.9.79a57.07,57.07,0,0,0-1.89-15,32,32,0,0,0-6.07-12,28.18,28.18,0,0,0-10.72-8q-6.56-2.85-17.18-2.85H55.06v77.34h12a45.4,45.4,0,0,0,16-2.46A26.74,26.74,0,0,0,94,320.64a32,32,0,0,0,6.5-12.35A61.55,61.55,0,0,0,102.61,291.07Z"/><path class="3b11f6d5-0dac-41ff-a49d-38a38fa7619c" d="M168.7,345.65a2.46,2.46,0,0,1-.57,1.58,4,4,0,0,1-1.89,1.14,18.24,18.24,0,0,1-3.52.7,58.21,58.21,0,0,1-11.2,0,18.26,18.26,0,0,1-3.56-.7,4,4,0,0,1-1.89-1.14,2.46,2.46,0,0,1-.57-1.58V238.24a2.46,2.46,0,0,1,.57-1.58,4,4,0,0,1,1.93-1.14,19.42,19.42,0,0,1,3.56-.7,46.74,46.74,0,0,1,5.54-.27,47.63,47.63,0,0,1,5.62.27,18.24,18.24,0,0,1,3.52.7,4,4,0,0,1,1.89,1.14,2.46,2.46,0,0,1,.57,1.58Z"/><path class="3b11f6d5-0dac-41ff-a49d-38a38fa7619c" d="M272.15,331.58c0,1.47,0,2.71-.14,3.74a16.91,16.91,0,0,1-.39,2.64,7.85,7.85,0,0,1-.7,1.89,10.22,10.22,0,0,1-1.41,1.8,18,18,0,0,1-3.74,2.59,43.66,43.66,0,0,1-6.76,3,59.38,59.38,0,0,1-9.14,2.42,60.66,60.66,0,0,1-11.12,1,58.63,58.63,0,0,1-21.1-3.61,41.62,41.62,0,0,1-16-10.76,48,48,0,0,1-10.11-17.89,80.34,80.34,0,0,1-3.51-25,79,79,0,0,1,3.86-25.75,53.67,53.67,0,0,1,10.81-18.9,45.24,45.24,0,0,1,16.66-11.6,56.16,56.16,0,0,1,21.4-4,51.29,51.29,0,0,1,9.14.8,54.82,54.82,0,0,1,8.13,2.06,40.09,40.09,0,0,1,6.72,2.95,19.9,19.9,0,0,1,4.18,2.85,9.63,9.63,0,0,1,1.62,2,7.29,7.29,0,0,1,.71,2,22.24,22.24,0,0,1,.39,2.9c.09,1.11.14,2.49.14,4.13s-.06,3.25-.18,4.48a11.37,11.37,0,0,1-.62,3,4.07,4.07,0,0,1-1.05,1.67,2.11,2.11,0,0,1-1.41.53,6.07,6.07,0,0,1-3.34-1.54,55.61,55.61,0,0,0-5.23-3.43,42.11,42.11,0,0,0-7.64-3.42,32.33,32.33,0,0,0-10.59-1.54,25,25,0,0,0-21.14,10.68,37.07,37.07,0,0,0-5.67,12.43,72.59,72.59,0,0,0,.13,33.8A33.5,33.5,0,0,0,221,321.65a23.8,23.8,0,0,0,9.23,7.08,30.5,30.5,0,0,0,12.17,2.33A35,35,0,0,0,253,329.61a45.47,45.47,0,0,0,7.69-3.21c2.14-1.17,3.89-2.23,5.27-3.17a6.61,6.61,0,0,1,3.21-1.4,2.07,2.07,0,0,1,2.28,1.76,13.48,13.48,0,0,1,.53,2.94C272.09,327.79,272.15,329.47,272.15,331.58Z"/><path class="3b11f6d5-0dac-41ff-a49d-38a38fa7619c" d="M377.53,345.65a2.46,2.46,0,0,1-.57,1.58,4,4,0,0,1-1.89,1.14,18.4,18.4,0,0,1-3.52.7,46.74,46.74,0,0,1-5.54.27,49,49,0,0,1-5.67-.27,17.35,17.35,0,0,1-3.51-.7,4,4,0,0,1-1.85-1.14,2.46,2.46,0,0,1-.57-1.58v-46H311.87v46a2.58,2.58,0,0,1-.52,1.58,3.72,3.72,0,0,1-1.85,1.14,18.24,18.24,0,0,1-3.52.7,58.21,58.21,0,0,1-11.2,0,18.26,18.26,0,0,1-3.56-.7,4,4,0,0,1-1.89-1.14,2.46,2.46,0,0,1-.57-1.58V238.24a2.46,2.46,0,0,1,.57-1.58,4,4,0,0,1,1.89-1.14,18.26,18.26,0,0,1,3.56-.7,58.21,58.21,0,0,1,11.2,0,18.24,18.24,0,0,1,3.52.7,3.72,3.72,0,0,1,1.85,1.14,2.58,2.58,0,0,1,.52,1.58V280h42.54V238.24a2.46,2.46,0,0,1,.57-1.58,4,4,0,0,1,1.85-1.14,17.35,17.35,0,0,1,3.51-.7,49,49,0,0,1,5.67-.27,46.74,46.74,0,0,1,5.54.27,18.4,18.4,0,0,1,3.52.7,4,4,0,0,1,1.89,1.14,2.46,2.46,0,0,1,.57,1.58Z"/></g></svg>