<svg xmlns="http://www.w3.org/2000/svg" viewBox="0 0 1778.48 400"><defs><style>.dcff06be-dec8-4acd-8e59-48829154e541{fill:#5b9bd5;}.\38 68aa95b-b129-4bb2-9309-468262801da2,.da87f434-c50c-4a4d-ba89-32bd96174188{fill:none;stroke:#02225e;stroke-miterlimit:10;}.\38 68aa95b-b129-4bb2-9309-468262801da2{stroke-width:5px;}.da87f434-c50c-4a4d-ba89-32bd96174188{stroke-width:2.5px;}.\31 553644a-7692-4df2-9341-3b5d916e05b5{fill:#02225e;}.\32 add15ae-6936-4c00-87be-a95b58574215{fill:#fff;}</style></defs><title>logo-text</title><g id="c308da25-6407-4c4b-b9b4-94ab50dcb47c" data-name="Background"><rect class="dcff06be-dec8-4acd-8e59-48829154e541" x="0.04" y="0.12" width="400" height="400"/></g><g id="8d25de0d-a43f-448a-a229-34020f16746b" data-name="Spritze"><line class="868aa95b-b129-4bb2-9309-468262801da2" x1="54.54" y1="20.12" x2="54.54" y2="60.12"/><line class="868aa95b-b129-4bb2-9309-468262801da2" x1="54.54" y1="168.12" x2="54.54" y2="188.12"/><line class="868aa95b-b129-4bb2-9309-468262801da2" x1="32.04" y1="61.62" x2="77.04" y2="61.62"/><line class="868aa95b-b129-4bb2-9309-468262801da2" x1="34.54" y1="63.12" x2="34.54" y2="163.12"/><line class="868aa95b-b129-4bb2-9309-468262801da2" x1="32.04" y1="165.62" x2="77.04" y2="165.62"/><line class="868aa95b-b129-4bb2-9309-468262801da2" x1="42.04" y1="190.62" x2="67.04" y2="190.62"/><line class="868aa95b-b129-4bb2-9309-468262801da2" x1="76.54" y1="91.12" x2="76.54" y2="136.12"/><line class="868aa95b-b129-4bb2-9309-468262801da2" x1="74.54" y1="64.12" x2="74.54" y2="86.12"/><line class="868aa95b-b129-4bb2-9309-468262801da2" x1="74.54" y1="141.12" x2="74.54" y2="163.12"/><line class="868aa95b-b129-4bb2-9309-468262801da2" x1="79.04" y1="88.62" x2="54.04" y2="88.62"/><line class="868aa95b-b129-4bb2-9309-468262801da2" x1="79.04" y1="138.62" x2="54.04" y2="138.62"/><line class="da87f434-c50c-4a4d-ba89-32bd96174188" x1="37.04" y1="88.62" x2="45.04" y2="88.62"/><line class="da87f434-c50c-4a4d-ba89-32bd96174188" x1="37.04" y1="96.62" x2="41.04" y2="96.62"/><line class="da87f434-c50c-4a4d-ba89-32bd96174188" x1="37.04" y1="138.62" x2="45.04" y2="138.62"/><line class="da87f434-c50c-4a4d-ba89-32bd96174188" x1="37.04" y1="112.62" x2="45.04" y2="112.62"/><line class="da87f434-c50c-4a4d-ba89-32bd96174188" x1="37.04" y1="104.62" x2="41.04" y2="104.62"/><line class="da87f434-c50c-4a4d-ba89-32bd96174188" x1="37.04" y1="121.62" x2="41.04" y2="121.62"/><line class="da87f434-c50c-4a4d-ba89-32bd96174188" x1="37.04" y1="130.62" x2="41.04" y2="130.62"/><circle class="da87f434-c50c-4a4d-ba89-32bd96174188" cx="66.04" cy="100.12" r="3.5"/><circle class="da87f434-c50c-4a4d-ba89-32bd96174188" cx="66.04" cy="127.12" r="3.5"/></g><g id="08045787-d7af-4b05-9589-56c0b2e8d73a" data-name="Text Outline"><path class="1553644a-7692-4df2-9341-3b5d916e05b5" d="M213.11,165.91a2.61,2.61,0,0,1-.46,1.5,3.29,3.29,0,0,1-1.66,1.08,15.68,15.68,0,0,1-3.2.66,41.13,41.13,0,0,1-5.06.25,40.5,40.5,0,0,1-5-.25,14.69,14.69,0,0,1-3.15-.66,3.56,3.56,0,0,1-1.67-1.08,2.43,2.43,0,0,1-.49-1.5V78.51h-.17l-31.13,87.32a4,4,0,0,1-1.08,1.79,5.23,5.23,0,0,1-2,1.12,14.41,14.41,0,0,1-3.28.54c-1.33.08-2.93.12-4.81.12a47.06,47.06,0,0,1-4.82-.21,14.3,14.3,0,0,1-3.28-.66,6.16,6.16,0,0,1-2-1.12,3.22,3.22,0,0,1-1-1.58l-30-87.32h-.17v87.4a2.54,2.54,0,0,1-.46,1.5,3.25,3.25,0,0,1-1.7,1.08,16.67,16.67,0,0,1-3.19.66,50.22,50.22,0,0,1-10,0,15.57,15.57,0,0,1-3.19-.66,3.2,3.2,0,0,1-1.66-1.08,2.54,2.54,0,0,1-.46-1.5V70.21c0-2.83.75-5,2.24-6.48a8.11,8.11,0,0,1,6-2.24h14.28a30.22,30.22,0,0,1,6.55.62,12.67,12.67,0,0,1,4.73,2.08A11.67,11.67,0,0,1,125,68a27.37,27.37,0,0,1,2.33,5.85l23.24,64h.33L175,74a33,33,0,0,1,2.36-5.9,13.79,13.79,0,0,1,3-3.9,9.88,9.88,0,0,1,4-2.12,21.08,21.08,0,0,1,5.39-.62h14.69a11.62,11.62,0,0,1,3.86.58,6.67,6.67,0,0,1,2.66,1.7,7.48,7.48,0,0,1,1.58,2.74,11.67,11.67,0,0,1,.54,3.7Z"/><path class="1553644a-7692-4df2-9341-3b5d916e05b5" d="M310.06,94.11a42.41,42.41,0,0,1-2.82,16A31,31,0,0,1,299,121.88a36.26,36.26,0,0,1-13.24,7.26,61.29,61.29,0,0,1-18.47,2.49h-9v34.28a2.36,2.36,0,0,1-.54,1.5,3.86,3.86,0,0,1-1.79,1.08,16.8,16.8,0,0,1-3.32.66,56.09,56.09,0,0,1-10.58,0,16.83,16.83,0,0,1-3.36-.66,3.56,3.56,0,0,1-1.75-1.08,2.44,2.44,0,0,1-.5-1.5V69.29q0-3.9,2-5.85a7.4,7.4,0,0,1,5.35-1.95h25.32c2.54,0,5,.1,7.26.29A77.31,77.31,0,0,1,284.74,63a36.56,36.56,0,0,1,9.76,3.52,29,29,0,0,1,8.42,6.52,27.14,27.14,0,0,1,5.31,9.21A36,36,0,0,1,310.06,94.11Zm-22.83,1.58a19.3,19.3,0,0,0-2-9.3,13.75,13.75,0,0,0-4.9-5.39,16.21,16.21,0,0,0-6.1-2.2,45.79,45.79,0,0,0-6.6-.46h-9.29v36.44h9.79a23.74,23.74,0,0,0,8.76-1.41,15,15,0,0,0,5.77-3.94,17.25,17.25,0,0,0,3.4-6.06A24.54,24.54,0,0,0,287.23,95.69Z"/><path class="1553644a-7692-4df2-9341-3b5d916e05b5" d="M387.26,70.46a35.11,35.11,0,0,1-.21,4.19,9.29,9.29,0,0,1-.67,2.7,4.33,4.33,0,0,1-1,1.49,2,2,0,0,1-1.33.5H348.91v28.88h32.95a2.22,2.22,0,0,1,1.33.42,3.54,3.54,0,0,1,1,1.41,9.43,9.43,0,0,1,.66,2.66,41.11,41.11,0,0,1,0,8.3,10.68,10.68,0,0,1-.66,2.74,3.78,3.78,0,0,1-1,1.53,2.07,2.07,0,0,1-1.33.46H348.91v40a2.59,2.59,0,0,1-.5,1.58,3.8,3.8,0,0,1-1.79,1.12,15.88,15.88,0,0,1-3.36.7,56.09,56.09,0,0,1-10.58,0,15.21,15.21,0,0,1-3.36-.7,4.15,4.15,0,0,1-1.79-1.12,2.44,2.44,0,0,1-.54-1.58V68.38c0-2.43.63-4.19,1.87-5.27a6.79,6.79,0,0,1,4.61-1.62H384a2.07,2.07,0,0,1,1.33.46,3.81,3.81,0,0,1,1,1.49,9.83,9.83,0,0,1,.67,2.78A36.26,36.26,0,0,1,387.26,70.46Z"/><path class="1553644a-7692-4df2-9341-3b5d916e05b5" d="M465.66,163.13a2.32,2.32,0,0,1-.54,1.5,3.82,3.82,0,0,1-1.78,1.08,18.39,18.39,0,0,1-3.32.66,56.2,56.2,0,0,1-10.59,0,18.39,18.39,0,0,1-3.36-.66,3.77,3.77,0,0,1-1.78-1.08,2.27,2.27,0,0,1-.54-1.5V61.7a2.27,2.27,0,0,1,.54-1.5,3.77,3.77,0,0,1,1.82-1.08,19.51,19.51,0,0,1,3.36-.66,44.45,44.45,0,0,1,5.23-.25,45.42,45.42,0,0,1,5.32.25,18.39,18.39,0,0,1,3.32.66,3.82,3.82,0,0,1,1.78,1.08,2.32,2.32,0,0,1,.54,1.5Z"/><path class="1553644a-7692-4df2-9341-3b5d916e05b5" d="M614.24,163.13a2.62,2.62,0,0,1-.45,1.5,3.29,3.29,0,0,1-1.66,1.08,17.35,17.35,0,0,1-3.2.66,41.36,41.36,0,0,1-5.06.25,40.5,40.5,0,0,1-5-.25,16.32,16.32,0,0,1-3.16-.66,3.53,3.53,0,0,1-1.66-1.08,2.46,2.46,0,0,1-.5-1.5V75.73h-.16l-31.13,87.32a4,4,0,0,1-1.08,1.78,5.12,5.12,0,0,1-2,1.12,13.38,13.38,0,0,1-3.28.54c-1.33.09-2.93.13-4.82.13a46.85,46.85,0,0,1-4.81-.21,14.86,14.86,0,0,1-3.28-.66,6.24,6.24,0,0,1-2-1.12,3.27,3.27,0,0,1-1-1.58L509.9,75.73h-.16v87.4a2.63,2.63,0,0,1-.46,1.5,3.25,3.25,0,0,1-1.7,1.08,18.3,18.3,0,0,1-3.2.66,50.12,50.12,0,0,1-10,0,17.35,17.35,0,0,1-3.2-.66,3.29,3.29,0,0,1-1.66-1.08,2.62,2.62,0,0,1-.45-1.5V67.42c0-2.82.74-5,2.24-6.47a8.1,8.1,0,0,1,6-2.24h14.27a30.32,30.32,0,0,1,6.56.62,12.75,12.75,0,0,1,4.73,2.08,11.74,11.74,0,0,1,3.32,3.81,27.47,27.47,0,0,1,2.33,5.86l23.24,64h.33l24.07-63.84a33.6,33.6,0,0,1,2.37-5.89,13.51,13.51,0,0,1,3-3.9,9.84,9.84,0,0,1,4-2.12,21.21,21.21,0,0,1,5.4-.62h14.69a11.41,11.41,0,0,1,3.86.58,6.63,6.63,0,0,1,2.66,1.7,7.46,7.46,0,0,1,1.57,2.74,11.65,11.65,0,0,1,.54,3.69Z"/><path class="1553644a-7692-4df2-9341-3b5d916e05b5" d="M711.2,91.33a42.28,42.28,0,0,1-2.83,16,30.94,30.94,0,0,1-8.21,11.75,36.26,36.26,0,0,1-13.24,7.26,61.29,61.29,0,0,1-18.47,2.49h-9v34.28a2.32,2.32,0,0,1-.54,1.5,3.82,3.82,0,0,1-1.78,1.08,18.39,18.39,0,0,1-3.32.66,56.2,56.2,0,0,1-10.59,0,18.39,18.39,0,0,1-3.36-.66,3.52,3.52,0,0,1-1.74-1.08,2.46,2.46,0,0,1-.5-1.5V66.51q0-3.9,2-5.85A7.4,7.4,0,0,1,645,58.71h25.32q3.81,0,7.26.29a77,77,0,0,1,8.26,1.24,36.76,36.76,0,0,1,9.75,3.53,29.2,29.2,0,0,1,8.43,6.52,27.31,27.31,0,0,1,5.31,9.21A36,36,0,0,1,711.2,91.33Zm-22.83,1.58a19.3,19.3,0,0,0-2-9.3,13.75,13.75,0,0,0-4.9-5.39,16,16,0,0,0-6.1-2.2,45.79,45.79,0,0,0-6.6-.46h-9.3V112h9.8a23.78,23.78,0,0,0,8.76-1.41,15,15,0,0,0,5.76-3.94,17.11,17.11,0,0,0,3.41-6.06A24.58,24.58,0,0,0,688.37,92.91Z"/><path class="1553644a-7692-4df2-9341-3b5d916e05b5" d="M788.39,67.67a37.83,37.83,0,0,1-.2,4.2,9.13,9.13,0,0,1-.67,2.69,4.16,4.16,0,0,1-1,1.5,2,2,0,0,1-1.32.5H750v28.88h33a2.22,2.22,0,0,1,1.33.42,3.39,3.39,0,0,1,1,1.41,9.08,9.08,0,0,1,.67,2.65,41.21,41.21,0,0,1,0,8.31,10.17,10.17,0,0,1-.67,2.73,3.81,3.81,0,0,1-1,1.54A2.07,2.07,0,0,1,783,123H750v40a2.53,2.53,0,0,1-.49,1.57,3.71,3.71,0,0,1-1.79,1.12,16,16,0,0,1-3.36.71,56.09,56.09,0,0,1-10.58,0,15.12,15.12,0,0,1-3.37-.71,3.93,3.93,0,0,1-1.78-1.12,2.4,2.4,0,0,1-.54-1.57V65.6c0-2.44.62-4.19,1.87-5.27a6.77,6.77,0,0,1,4.6-1.62h50.56a2,2,0,0,1,1.32.46,3.72,3.72,0,0,1,1,1.49,9.83,9.83,0,0,1,.67,2.78A38.68,38.68,0,0,1,788.39,67.67Z"/><path class="1553644a-7692-4df2-9341-3b5d916e05b5" d="M884.52,158a28.64,28.64,0,0,1,1.24,4.73,2.83,2.83,0,0,1-.66,2.61,5.43,5.43,0,0,1-3.24,1.08q-2.33.21-6.39.21-4.23,0-6.6-.13a16.12,16.12,0,0,1-3.61-.49,3.3,3.3,0,0,1-1.74-1,5.42,5.42,0,0,1-.83-1.74l-7.23-21.59H815.12l-6.8,21a7,7,0,0,1-.88,2,3.56,3.56,0,0,1-1.74,1.24,12.87,12.87,0,0,1-3.4.62c-1.47.11-3.39.17-5.77.17a54.22,54.22,0,0,1-6-.25,4.63,4.63,0,0,1-3-1.2,3.29,3.29,0,0,1-.58-2.7,27.1,27.1,0,0,1,1.25-4.65l33.12-95.29a8.57,8.57,0,0,1,1.16-2.29,4.08,4.08,0,0,1,2.12-1.32,16.21,16.21,0,0,1,4-.58q2.58-.14,6.81-.13,4.89,0,7.8.13a20.3,20.3,0,0,1,4.53.58,4.26,4.26,0,0,1,2.32,1.37,8,8,0,0,1,1.2,2.49ZM835.21,79.21h-.08l-15.19,45.66H850.4Z"/><path class="1553644a-7692-4df2-9341-3b5d916e05b5" d="M984.29,126.11a50.55,50.55,0,0,1-2.9,17.68,34.83,34.83,0,0,1-8.55,13.2,37.13,37.13,0,0,1-14,8.22A59.27,59.27,0,0,1,939.8,168a60.47,60.47,0,0,1-18.18-2.53A35.33,35.33,0,0,1,908,157.82,33.5,33.5,0,0,1,899.5,145a49.94,49.94,0,0,1-3-18V61.7a2.46,2.46,0,0,1,.5-1.5,3.56,3.56,0,0,1,1.79-1.08,19.13,19.13,0,0,1,3.36-.66,45.12,45.12,0,0,1,5.31-.25,44.33,44.33,0,0,1,5.23.25,18.39,18.39,0,0,1,3.32.66,3.82,3.82,0,0,1,1.78,1.08,2.32,2.32,0,0,1,.54,1.5v63.42A34.9,34.9,0,0,0,920,136.2a20.51,20.51,0,0,0,4.52,7.76,18.68,18.68,0,0,0,7.06,4.6,25.91,25.91,0,0,0,9.17,1.54,25.18,25.18,0,0,0,9.22-1.58,18.36,18.36,0,0,0,6.89-4.6,20.69,20.69,0,0,0,4.35-7.47,30.64,30.64,0,0,0,1.54-10.09V61.7a2.46,2.46,0,0,1,.5-1.5A3.52,3.52,0,0,1,965,59.12a18.39,18.39,0,0,1,3.36-.66,45.55,45.55,0,0,1,5.27-.25,43.14,43.14,0,0,1,5.19.25,18.23,18.23,0,0,1,3.28.66,3.52,3.52,0,0,1,1.74,1.08,2.4,2.4,0,0,1,.5,1.5Z"/><path class="1553644a-7692-4df2-9341-3b5d916e05b5" d="M1067.88,67.67a35.29,35.29,0,0,1-.21,4.2,9.49,9.49,0,0,1-.66,2.69,4.29,4.29,0,0,1-1,1.5,2,2,0,0,1-1.33.5h-35.11v28.88h33a2.19,2.19,0,0,1,1.32.42,3.32,3.32,0,0,1,1,1.41,9.41,9.41,0,0,1,.67,2.65,43.26,43.26,0,0,1,0,8.31,10.57,10.57,0,0,1-.67,2.73,3.72,3.72,0,0,1-1,1.54,2,2,0,0,1-1.32.46h-33v40a2.48,2.48,0,0,1-.5,1.57,3.62,3.62,0,0,1-1.78,1.12,16,16,0,0,1-3.36.71,56.2,56.2,0,0,1-10.59,0,15.14,15.14,0,0,1-3.36-.71,3.93,3.93,0,0,1-1.78-1.12,2.4,2.4,0,0,1-.54-1.57V65.6c0-2.44.62-4.19,1.87-5.27a6.77,6.77,0,0,1,4.6-1.62h50.55a2.07,2.07,0,0,1,1.33.46,3.82,3.82,0,0,1,1,1.49,10.22,10.22,0,0,1,.66,2.78A36.08,36.08,0,0,1,1067.88,67.67Z"/><path class="1553644a-7692-4df2-9341-3b5d916e05b5" d="M1164.09,162.88a3,3,0,0,1-.46,1.62,3.3,3.3,0,0,1-1.74,1.16,16.33,16.33,0,0,1-3.53.71,51.6,51.6,0,0,1-5.64.25,50.08,50.08,0,0,1-7.77-.42,7.67,7.67,0,0,1-3.4-1.24,6,6,0,0,1-1.62-2l-32.45-51v51a2.54,2.54,0,0,1-.5,1.57,3.66,3.66,0,0,1-1.75,1.12,15,15,0,0,1-3.32.71,56.09,56.09,0,0,1-10.58,0,15.14,15.14,0,0,1-3.36-.71,4,4,0,0,1-1.79-1.12,2.4,2.4,0,0,1-.54-1.57V61.78a2.44,2.44,0,0,1,.54-1.58,3.86,3.86,0,0,1,1.79-1.08,18.39,18.39,0,0,1,3.36-.66,56.09,56.09,0,0,1,10.58,0,18.21,18.21,0,0,1,3.32.66A3.56,3.56,0,0,1,1107,60.2a2.59,2.59,0,0,1,.5,1.58v45.74l31.46-45.66a5.85,5.85,0,0,1,1.41-1.78,6.1,6.1,0,0,1,2.16-1.12,15.53,15.53,0,0,1,3.4-.58c1.38-.11,3.15-.17,5.31-.17a48.46,48.46,0,0,1,5.48.25,15.87,15.87,0,0,1,3.44.71,3.66,3.66,0,0,1,1.79,1.12,2.43,2.43,0,0,1,.5,1.49,6.49,6.49,0,0,1-.75,2.91q-.75,1.49-2.82,4.73L1129.39,108l32.12,48.56a37.09,37.09,0,0,1,2.2,4.52A6,6,0,0,1,1164.09,162.88Z"/><path class="1553644a-7692-4df2-9341-3b5d916e05b5" d="M1237.63,157a37.51,37.51,0,0,1-.2,4.19,12.37,12.37,0,0,1-.63,2.82,3.69,3.69,0,0,1-1,1.62,2.31,2.31,0,0,1-1.46.5h-49.22a6.79,6.79,0,0,1-4.61-1.62c-1.24-1.08-1.87-2.83-1.87-5.27V61.7a2.32,2.32,0,0,1,.54-1.5,3.86,3.86,0,0,1,1.79-1.08,18.39,18.39,0,0,1,3.36-.66,56.09,56.09,0,0,1,10.58,0,18.21,18.21,0,0,1,3.32.66A3.86,3.86,0,0,1,1200,60.2a2.32,2.32,0,0,1,.54,1.5v86.41h33.78a2.45,2.45,0,0,1,1.46.45,3.45,3.45,0,0,1,1,1.5,11,11,0,0,1,.63,2.74A37.51,37.51,0,0,1,1237.63,157Z"/><path class="1553644a-7692-4df2-9341-3b5d916e05b5" d="M1338.49,158a28.64,28.64,0,0,1,1.24,4.73,2.83,2.83,0,0,1-.66,2.61,5.43,5.43,0,0,1-3.24,1.08q-2.32.21-6.39.21-4.23,0-6.6-.13a16.12,16.12,0,0,1-3.61-.49,3.3,3.3,0,0,1-1.74-1,5.42,5.42,0,0,1-.83-1.74l-7.23-21.59h-40.34l-6.8,21a7,7,0,0,1-.88,2,3.56,3.56,0,0,1-1.74,1.24,12.87,12.87,0,0,1-3.4.62c-1.47.11-3.39.17-5.77.17a54.22,54.22,0,0,1-6-.25,4.63,4.63,0,0,1-3-1.2,3.29,3.29,0,0,1-.58-2.7,27.1,27.1,0,0,1,1.25-4.65l33.12-95.29a8.57,8.57,0,0,1,1.16-2.29,4.08,4.08,0,0,1,2.12-1.32,16.21,16.21,0,0,1,4-.58q2.58-.14,6.81-.13,4.89,0,7.8.13a20.3,20.3,0,0,1,4.53.58,4.26,4.26,0,0,1,2.32,1.37,8,8,0,0,1,1.2,2.49Zm-55.12-119.2q0,5.81-2.28,8.13t-8.68,2.33q-6.39,0-8.63-2.25t-2.24-7.88c0-3.93.77-6.65,2.32-8.18s4.43-2.28,8.64-2.28,7.2.73,8.67,2.2S1283.37,35,1283.37,38.79Zm5.81,40.42h-.08l-15.19,45.66h30.46Zm30.46-40.42q0,5.81-2.32,8.13t-8.72,2.33q-6.39,0-8.59-2.25c-1.46-1.49-2.2-4.12-2.2-7.88,0-3.93.76-6.65,2.29-8.18s4.41-2.28,8.67-2.28,7.14.73,8.63,2.2S1319.64,35,1319.64,38.79Z"/><path class="1553644a-7692-4df2-9341-3b5d916e05b5" d="M1433.2,163.3a3.21,3.21,0,0,1-.33,1.53,2.64,2.64,0,0,1-1.58,1,15.48,15.48,0,0,1-3.65.58c-1.61.11-3.79.17-6.56.17-2.32,0-4.18-.06-5.56-.17a12.41,12.41,0,0,1-3.28-.62,3.52,3.52,0,0,1-1.7-1.16,6.57,6.57,0,0,1-.83-1.7l-9.63-24c-1.16-2.71-2.3-5.12-3.4-7.22a23.12,23.12,0,0,0-3.7-5.28,13.54,13.54,0,0,0-4.69-3.19,16.22,16.22,0,0,0-6.14-1.08h-6.81v40.92a2.32,2.32,0,0,1-.54,1.5,3.82,3.82,0,0,1-1.78,1.08,18.39,18.39,0,0,1-3.32.66,56.2,56.2,0,0,1-10.59,0,18.39,18.39,0,0,1-3.36-.66,3.52,3.52,0,0,1-1.74-1.08,2.46,2.46,0,0,1-.5-1.5V65.6c0-2.44.62-4.19,1.87-5.27a6.78,6.78,0,0,1,4.61-1.62h27.8c2.83,0,5.15,0,7,.16s3.48.25,5,.42a45.53,45.53,0,0,1,11.66,3.15,28.05,28.05,0,0,1,8.8,5.86,24.28,24.28,0,0,1,5.52,8.55,31.32,31.32,0,0,1,1.91,11.33,33.36,33.36,0,0,1-1.37,9.83,25.36,25.36,0,0,1-4,7.93,26.47,26.47,0,0,1-6.56,6.06,35.27,35.27,0,0,1-8.88,4.15,25.58,25.58,0,0,1,4.53,2.82,24.14,24.14,0,0,1,4,4,38.66,38.66,0,0,1,3.53,5.39,73.94,73.94,0,0,1,3.24,6.85l9,21.17c.83,2.1,1.39,3.64,1.66,4.61A8.76,8.76,0,0,1,1433.2,163.3Zm-28.14-72.88a15.93,15.93,0,0,0-2.41-9q-2.4-3.65-7.88-5.14a30.52,30.52,0,0,0-3.78-.67,54.48,54.48,0,0,0-5.85-.25h-9.8v30.47h11.13a26.85,26.85,0,0,0,8.13-1.12,16.27,16.27,0,0,0,5.81-3.16,12.91,12.91,0,0,0,3.49-4.85A16.53,16.53,0,0,0,1405.06,90.42Z"/><path class="1553644a-7692-4df2-9341-3b5d916e05b5" d="M1536.88,126.11a50.31,50.31,0,0,1-2.91,17.68,34.83,34.83,0,0,1-8.55,13.2,37.08,37.08,0,0,1-13.94,8.22,59.33,59.33,0,0,1-19.1,2.82,60.47,60.47,0,0,1-18.18-2.53,35.4,35.4,0,0,1-13.61-7.68,33.61,33.61,0,0,1-8.51-12.82,50.16,50.16,0,0,1-2.94-18V61.7a2.45,2.45,0,0,1,.49-1.5,3.61,3.61,0,0,1,1.79-1.08,19.51,19.51,0,0,1,3.36-.66,45.12,45.12,0,0,1,5.31-.25,44.21,44.21,0,0,1,5.23.25,18.21,18.21,0,0,1,3.32.66,3.86,3.86,0,0,1,1.79,1.08,2.32,2.32,0,0,1,.54,1.5v63.42a34.92,34.92,0,0,0,1.57,11.08,20.53,20.53,0,0,0,4.53,7.76,18.57,18.57,0,0,0,7,4.6,25.92,25.92,0,0,0,9.18,1.54,25.13,25.13,0,0,0,9.21-1.58,18.28,18.28,0,0,0,6.89-4.6,20.85,20.85,0,0,0,4.36-7.47,30.91,30.91,0,0,0,1.53-10.09V61.7a2.46,2.46,0,0,1,.5-1.5,3.52,3.52,0,0,1,1.74-1.08,18.52,18.52,0,0,1,3.37-.66,45.31,45.31,0,0,1,5.27-.25,43.07,43.07,0,0,1,5.18.25,18.23,18.23,0,0,1,3.28.66,3.56,3.56,0,0,1,1.75,1.08,2.46,2.46,0,0,1,.5,1.5Z"/><path class="1553644a-7692-4df2-9341-3b5d916e05b5" d="M1648.77,158.48a8.37,8.37,0,0,1-.66,3.41,7.36,7.36,0,0,1-1.79,2.49,6.88,6.88,0,0,1-2.66,1.45,11,11,0,0,1-3.11.46h-9.29a19.48,19.48,0,0,1-5-.58,10.09,10.09,0,0,1-3.9-2.12,18.33,18.33,0,0,1-3.44-4.15,75.47,75.47,0,0,1-3.74-6.77l-26.73-50.22q-2.33-4.47-4.73-9.67c-1.6-3.45-3-6.82-4.31-10.08h-.17q.33,6,.5,11.91t.16,12.24v56.2a2.59,2.59,0,0,1-.45,1.49,3.35,3.35,0,0,1-1.58,1.12,12.55,12.55,0,0,1-3,.71,38.45,38.45,0,0,1-4.9.25,37.55,37.55,0,0,1-4.81-.25,11.72,11.72,0,0,1-3-.71,3,3,0,0,1-1.49-1.12,2.72,2.72,0,0,1-.42-1.49V66.51q0-3.9,2.28-5.85a8.33,8.33,0,0,1,5.61-1.95h11.7a22.26,22.26,0,0,1,5.31.54A10.92,10.92,0,0,1,1589,61a13.78,13.78,0,0,1,3.2,3.45,44.93,44.93,0,0,1,3.07,5.43l20.92,39.27c1.21,2.38,2.42,4.72,3.61,7s2.34,4.6,3.44,6.89,2.19,4.55,3.24,6.77,2.08,4.42,3.07,6.64h.09q-.25-5.82-.38-12.12t-.12-12V62a2.4,2.4,0,0,1,.5-1.5,4,4,0,0,1,1.66-1.16,11,11,0,0,1,3.07-.71c1.27-.13,2.9-.2,4.89-.2s3.46.07,4.74.2a9.41,9.41,0,0,1,2.94.71,3.33,3.33,0,0,1,1.45,1.16,2.76,2.76,0,0,1,.42,1.5Z"/><path class="1553644a-7692-4df2-9341-3b5d916e05b5" d="M1758.34,75.39a35.21,35.21,0,0,1-.21,4.15,12.93,12.93,0,0,1-.58,2.78,3.14,3.14,0,0,1-.91,1.46,2.09,2.09,0,0,1-1.29.41,8.11,8.11,0,0,1-3.48-1.49,51.23,51.23,0,0,0-6.4-3.24,69.16,69.16,0,0,0-9.5-3.24,49.64,49.64,0,0,0-12.83-1.49,35.54,35.54,0,0,0-14.11,2.7,30.75,30.75,0,0,0-10.79,7.63,34.16,34.16,0,0,0-6.89,11.87,46.62,46.62,0,0,0-2.4,15.32,49.29,49.29,0,0,0,2.44,16.23,33.06,33.06,0,0,0,6.85,11.74,28.13,28.13,0,0,0,10.59,7.14,37.2,37.2,0,0,0,13.65,2.41,31.93,31.93,0,0,0,7.22-.83,26.16,26.16,0,0,0,6.64-2.49v-24.9H1716c-1,0-1.78-.63-2.33-1.87a17.22,17.22,0,0,1-.83-6.35,30.27,30.27,0,0,1,.21-3.9,9.71,9.71,0,0,1,.62-2.54,3.65,3.65,0,0,1,1-1.41A2.1,2.1,0,0,1,1716,105h36.27a5.93,5.93,0,0,1,2.37.45,5.12,5.12,0,0,1,1.82,1.37,6.34,6.34,0,0,1,1.21,2.2,9.83,9.83,0,0,1,.41,3v42.75a10.25,10.25,0,0,1-.87,4.36,6.22,6.22,0,0,1-3.57,2.94q-2.7,1.08-6.68,2.24c-2.66.78-5.41,1.44-8.26,2s-5.73,1-8.63,1.24-5.83.42-8.76.42a67,67,0,0,1-23-3.7,45.19,45.19,0,0,1-28-27.8,65.57,65.57,0,0,1-3.74-22.87,66.33,66.33,0,0,1,4-23.7A50.13,50.13,0,0,1,1681.81,72a48.92,48.92,0,0,1,17.64-11.25,64.77,64.77,0,0,1,23-3.9,77.13,77.13,0,0,1,12.7,1,71.2,71.2,0,0,1,10,2.32,39.12,39.12,0,0,1,7.1,3,17.45,17.45,0,0,1,3.94,2.74,6.84,6.84,0,0,1,1.62,3.28A29.46,29.46,0,0,1,1758.34,75.39Z"/><path class="1553644a-7692-4df2-9341-3b5d916e05b5" d="M460.6,341a2,2,0,0,1-.34,1.16,2.16,2.16,0,0,1-1.16.79,12.14,12.14,0,0,1-2.2.5,23.31,23.31,0,0,1-3.44.21,23.63,23.63,0,0,1-3.41-.21,12.28,12.28,0,0,1-2.24-.5,2.16,2.16,0,0,1-1.16-.79,2,2,0,0,1-.33-1.16V237.87a1.9,1.9,0,0,1,.37-1.17,2.49,2.49,0,0,1,1.25-.78,13.35,13.35,0,0,1,2.24-.5,21.93,21.93,0,0,1,3.28-.21,23.31,23.31,0,0,1,3.44.21,12.14,12.14,0,0,1,2.2.5,2.2,2.2,0,0,1,1.16.78,2.09,2.09,0,0,1,.34,1.17Z"/><path class="1553644a-7692-4df2-9341-3b5d916e05b5" d="M570.33,337.23a6.36,6.36,0,0,1-.56,2.82,5.5,5.5,0,0,1-1.45,1.91,5.73,5.73,0,0,1-2,1.08,7.89,7.89,0,0,1-2.24.33h-4.72a14.59,14.59,0,0,1-3.9-.46,8.54,8.54,0,0,1-3.18-1.66,16.53,16.53,0,0,1-3-3.28,42.53,42.53,0,0,1-3.19-5.31L513.3,271.57q-2.56-4.74-5.18-9.92t-4.86-10.09h-.16q.16,6,.25,12.21t.08,12.36V341a2.05,2.05,0,0,1-.35,1.12,2.22,2.22,0,0,1-1.19.83,12.07,12.07,0,0,1-2.18.5,28.69,28.69,0,0,1-6.93,0,11.16,11.16,0,0,1-2.14-.5,2.16,2.16,0,0,1-1.14-.83,2.05,2.05,0,0,1-.35-1.12V241.85q0-3.32,1.89-4.73a6.69,6.69,0,0,1,4.11-1.41h7a18,18,0,0,1,4.16.41,8.92,8.92,0,0,1,3,1.37,12.14,12.14,0,0,1,2.57,2.66,35.52,35.52,0,0,1,2.6,4.27l25.19,47.15c1.56,2.88,3,5.69,4.5,8.43s2.83,5.44,4.17,8.09,2.66,5.27,4,7.85,2.61,5.16,3.89,7.76h.08q-.16-6.56-.2-13.66t0-13.65V238.12a1.79,1.79,0,0,1,.35-1.08,2.62,2.62,0,0,1,1.18-.87,7.59,7.59,0,0,1,2.19-.54,30.23,30.23,0,0,1,3.54-.17,28.75,28.75,0,0,1,3.33.17,7.11,7.11,0,0,1,2.19.54A2.65,2.65,0,0,1,570,237a1.79,1.79,0,0,1,.35,1.08Z"/><path class="1553644a-7692-4df2-9341-3b5d916e05b5" d="M719.91,287.84a75.19,75.19,0,0,1-3.57,24.36,44.31,44.31,0,0,1-10.41,17.27,43.15,43.15,0,0,1-16.81,10.25q-10,3.4-23.74,3.4H642.63a5.87,5.87,0,0,1-3.61-1.29q-1.69-1.27-1.7-4.52V241.52q0-3.24,1.7-4.52a5.87,5.87,0,0,1,3.61-1.29H667q13.95,0,23.58,3.61a43,43,0,0,1,16.14,10.38,44.21,44.21,0,0,1,9.88,16.39A65.78,65.78,0,0,1,719.91,287.84Zm-15,.58a58.54,58.54,0,0,0-2.16-16.23,34.71,34.71,0,0,0-6.77-13,31.25,31.25,0,0,0-11.66-8.55q-7-3.08-18.18-3.07H651.6v83.59h14.69a50.89,50.89,0,0,0,17.35-2.58,28.64,28.64,0,0,0,11.79-7.88,34.37,34.37,0,0,0,7.09-13.32A67.3,67.3,0,0,0,704.89,288.42Z"/><path class="1553644a-7692-4df2-9341-3b5d916e05b5" d="M801.68,337.23a18,18,0,0,1-.17,2.61,5.64,5.64,0,0,1-.58,1.87,2.86,2.86,0,0,1-1,1.08,2.26,2.26,0,0,1-1.2.33H747.22a5.87,5.87,0,0,1-3.61-1.29q-1.7-1.27-1.7-4.52V241.52q0-3.24,1.7-4.52a5.87,5.87,0,0,1,3.61-1.29h51a2.26,2.26,0,0,1,1.2.33,2.29,2.29,0,0,1,.87,1.08,8.6,8.6,0,0,1,.54,1.87,15.36,15.36,0,0,1,.21,2.78,14.28,14.28,0,0,1-.21,2.61,7.74,7.74,0,0,1-.54,1.83,2.33,2.33,0,0,1-.87,1,2.26,2.26,0,0,1-1.2.33h-42v33.7h36a2.08,2.08,0,0,1,1.21.37,3.21,3.21,0,0,1,.91,1,5.24,5.24,0,0,1,.54,1.83,19.82,19.82,0,0,1,.16,2.74,17.38,17.38,0,0,1-.16,2.57,5.1,5.1,0,0,1-.54,1.74,2.42,2.42,0,0,1-.91,1,2.57,2.57,0,0,1-1.21.29h-36v38.43h42.58a2.26,2.26,0,0,1,1.2.33,3,3,0,0,1,1,1,5.19,5.19,0,0,1,.58,1.83A19.37,19.37,0,0,1,801.68,337.23Z"/><path class="1553644a-7692-4df2-9341-3b5d916e05b5" d="M905.68,303.44a49.79,49.79,0,0,1-2.86,17.48,35.76,35.76,0,0,1-8.18,13,34.47,34.47,0,0,1-12.95,8,51.05,51.05,0,0,1-17.34,2.74,48.32,48.32,0,0,1-16.19-2.58,34.09,34.09,0,0,1-12.53-7.59A33.22,33.22,0,0,1,827.57,322a49.63,49.63,0,0,1-2.82-17.43V237.87a2.08,2.08,0,0,1,.33-1.17,2.19,2.19,0,0,1,1.17-.78,12.09,12.09,0,0,1,2.15-.5,28.36,28.36,0,0,1,6.89,0,11,11,0,0,1,2.2.5,2.16,2.16,0,0,1,1.12.78,2.09,2.09,0,0,1,.34,1.17v64.91a41.79,41.79,0,0,0,1.82,13,24.69,24.69,0,0,0,5.27,9.26,22.13,22.13,0,0,0,8.3,5.56,30.35,30.35,0,0,0,10.92,1.87,31.28,31.28,0,0,0,11.08-1.83,21,21,0,0,0,8.22-5.48,24.47,24.47,0,0,0,5.14-9.05,40.17,40.17,0,0,0,1.79-12.61V237.87a2.08,2.08,0,0,1,.33-1.17,2.2,2.2,0,0,1,1.16-.78,12.35,12.35,0,0,1,2.2-.5,23.46,23.46,0,0,1,3.45-.21,22.61,22.61,0,0,1,3.36.21,11.23,11.23,0,0,1,2.16.5,2.48,2.48,0,0,1,1.16.78,1.9,1.9,0,0,1,.37,1.17Z"/><path class="1553644a-7692-4df2-9341-3b5d916e05b5" d="M1001.31,241.85a19.68,19.68,0,0,1-.17,2.74,5.71,5.71,0,0,1-.54,1.87,2.61,2.61,0,0,1-.91,1,2.26,2.26,0,0,1-1.2.33H968.27V341a2,2,0,0,1-.33,1.16,2.16,2.16,0,0,1-1.16.79,12.35,12.35,0,0,1-2.2.5,28,28,0,0,1-6.85,0,12.09,12.09,0,0,1-2.24-.5,2.12,2.12,0,0,1-1.16-.79A2,2,0,0,1,954,341V247.83H923.78a2.23,2.23,0,0,1-1.2-.33,2.41,2.41,0,0,1-.88-1,7.31,7.31,0,0,1-.53-1.87,15.58,15.58,0,0,1-.21-2.74,16.32,16.32,0,0,1,.21-2.78,8.17,8.17,0,0,1,.53-1.95,2.37,2.37,0,0,1,.88-1.08,2.23,2.23,0,0,1,1.2-.33h74.71a2.26,2.26,0,0,1,1.2.33,2.55,2.55,0,0,1,.91,1.08,6.33,6.33,0,0,1,.54,1.95A20.61,20.61,0,0,1,1001.31,241.85Z"/><path class="1553644a-7692-4df2-9341-3b5d916e05b5" d="M1073.69,313a31.21,31.21,0,0,1-2.78,13.45,28.84,28.84,0,0,1-7.72,10,33.39,33.39,0,0,1-11.62,6.18,48.15,48.15,0,0,1-14.4,2.08,52.12,52.12,0,0,1-10-.91,54.11,54.11,0,0,1-8.22-2.25,38.13,38.13,0,0,1-6.06-2.74,16.15,16.15,0,0,1-3.4-2.4,6.19,6.19,0,0,1-1.42-2.53,15.17,15.17,0,0,1-.45-4.11,23,23,0,0,1,.16-3,7.32,7.32,0,0,1,.5-2,2.15,2.15,0,0,1,.83-1,2.2,2.2,0,0,1,1.16-.29,6.76,6.76,0,0,1,3.28,1.41,52.64,52.64,0,0,0,5.44,3.07,51.89,51.89,0,0,0,8,3.11,36.62,36.62,0,0,0,10.83,1.46,27.59,27.59,0,0,0,8.51-1.25,19.88,19.88,0,0,0,6.64-3.53,15.34,15.34,0,0,0,4.28-5.6,18.3,18.3,0,0,0,1.49-7.55,14.19,14.19,0,0,0-2.07-7.81,21.06,21.06,0,0,0-5.48-5.68,47.74,47.74,0,0,0-7.77-4.48q-4.35-2-8.92-4.15a99,99,0,0,1-8.88-4.7,37.6,37.6,0,0,1-7.72-6.05,28.19,28.19,0,0,1-5.52-8.18,27.24,27.24,0,0,1-2.12-11.25,28.17,28.17,0,0,1,2.45-12,24.6,24.6,0,0,1,6.81-8.84,30.19,30.19,0,0,1,10.38-5.44,43.44,43.44,0,0,1,13-1.87,42.82,42.82,0,0,1,7.18.62,50.09,50.09,0,0,1,6.8,1.66,38.62,38.62,0,0,1,5.69,2.33,15.19,15.19,0,0,1,3.28,2.07,7,7,0,0,1,1,1.25,4.84,4.84,0,0,1,.41,1.16,12.7,12.7,0,0,1,.25,1.7c0,.67.08,1.53.08,2.58a26,26,0,0,1-.12,2.65,9.48,9.48,0,0,1-.38,1.95,2.3,2.3,0,0,1-.7,1.16,1.61,1.61,0,0,1-1,.38,6.73,6.73,0,0,1-2.86-1.16q-2-1.17-4.78-2.62a41.29,41.29,0,0,0-6.68-2.65,28.79,28.79,0,0,0-8.67-1.21,22.66,22.66,0,0,0-7.8,1.21,15.88,15.88,0,0,0-5.48,3.19,12.74,12.74,0,0,0-3.24,4.73,15.74,15.74,0,0,0-1.08,5.81,14,14,0,0,0,2.08,7.72,21.08,21.08,0,0,0,5.52,5.73,49.46,49.46,0,0,0,7.84,4.57q4.4,2.07,9,4.19t9,4.65a37.24,37.24,0,0,1,7.84,6,27.36,27.36,0,0,1,5.57,8.14A26.78,26.78,0,0,1,1073.69,313Z"/><path class="1553644a-7692-4df2-9341-3b5d916e05b5" d="M1165.83,327.93c0,.89,0,1.66-.08,2.32a10.8,10.8,0,0,1-.29,1.75,6,6,0,0,1-.54,1.33,7.78,7.78,0,0,1-1.16,1.41,25.27,25.27,0,0,1-3.49,2.53,42,42,0,0,1-6.6,3.32,55,55,0,0,1-9.05,2.74,51.84,51.84,0,0,1-11.16,1.12,48.87,48.87,0,0,1-18.89-3.49,38.13,38.13,0,0,1-14.36-10.29,47,47,0,0,1-9.13-16.81,84.49,84.49,0,0,1,.25-46.86,51.8,51.8,0,0,1,9.67-17.72,41.31,41.31,0,0,1,14.9-11.08,47.11,47.11,0,0,1,19.22-3.82,46.6,46.6,0,0,1,9.05.87,58.47,58.47,0,0,1,8.13,2.2,37.51,37.51,0,0,1,6.64,3.07,22.71,22.71,0,0,1,4,2.87,9.5,9.5,0,0,1,1.45,1.7,5.76,5.76,0,0,1,.54,1.37,12.76,12.76,0,0,1,.33,1.87,23.34,23.34,0,0,1,.13,2.57,20.29,20.29,0,0,1-.17,2.82,7.87,7.87,0,0,1-.5,1.95,3,3,0,0,1-.79,1.16,1.75,1.75,0,0,1-1.13.38,6.21,6.21,0,0,1-3.26-1.62,52.13,52.13,0,0,0-5.38-3.57,43.85,43.85,0,0,0-8-3.57,34.93,34.93,0,0,0-11.31-1.62,29.44,29.44,0,0,0-13.06,2.87,27.42,27.42,0,0,0-10,8.42,41.23,41.23,0,0,0-6.47,13.57,74.42,74.42,0,0,0-.09,36.36,37.59,37.59,0,0,0,6.35,13.12,26.39,26.39,0,0,0,10.14,8,32.82,32.82,0,0,0,13.6,2.7,35.75,35.75,0,0,0,11.22-1.58,43.61,43.61,0,0,0,8.18-3.52,65.51,65.51,0,0,0,5.55-3.53,6.66,6.66,0,0,1,3.42-1.58,1.88,1.88,0,0,1,1,.25,1.77,1.77,0,0,1,.67,1,8.34,8.34,0,0,1,.37,1.95A30.35,30.35,0,0,1,1165.83,327.93Z"/><path class="1553644a-7692-4df2-9341-3b5d916e05b5" d="M1262.12,341a2,2,0,0,1-.33,1.16,2.16,2.16,0,0,1-1.16.79,12.35,12.35,0,0,1-2.2.5,28,28,0,0,1-6.85,0,12,12,0,0,1-2.16-.5,2.16,2.16,0,0,1-1.16-.79,2,2,0,0,1-.33-1.16V293.32H1199V341a2,2,0,0,1-.33,1.16,2.16,2.16,0,0,1-1.16.79,12.14,12.14,0,0,1-2.2.5,28,28,0,0,1-6.85,0,12.09,12.09,0,0,1-2.24-.5,2.16,2.16,0,0,1-1.16-.79,2,2,0,0,1-.33-1.16V237.87a2.08,2.08,0,0,1,.33-1.17,2.2,2.2,0,0,1,1.16-.78,12.09,12.09,0,0,1,2.24-.5,28,28,0,0,1,6.85,0,12.14,12.14,0,0,1,2.2.5,2.2,2.2,0,0,1,1.16.78,2.08,2.08,0,0,1,.33,1.17v43h48.9v-43a2.08,2.08,0,0,1,.33-1.17,2.2,2.2,0,0,1,1.16-.78,12,12,0,0,1,2.16-.5,28,28,0,0,1,6.85,0,12.35,12.35,0,0,1,2.2.5,2.2,2.2,0,0,1,1.16.78,2.08,2.08,0,0,1,.33,1.17Z"/><path class="1553644a-7692-4df2-9341-3b5d916e05b5" d="M1346.37,336.9a19.75,19.75,0,0,1-.16,2.78,6.86,6.86,0,0,1-.54,1.91,2.91,2.91,0,0,1-.92,1.16,2.17,2.17,0,0,1-1.28.37H1296a5.85,5.85,0,0,1-3.61-1.29q-1.71-1.27-1.71-4.52V237.87a2,2,0,0,1,.34-1.17,2.16,2.16,0,0,1,1.16-.78,12.09,12.09,0,0,1,2.24-.5,28,28,0,0,1,6.85,0,12.35,12.35,0,0,1,2.2.5,2.2,2.2,0,0,1,1.16.78,2.08,2.08,0,0,1,.33,1.17v92.88h38.52a2.18,2.18,0,0,1,1.28.38,3,3,0,0,1,.92,1.07,5.87,5.87,0,0,1,.54,1.87A20.72,20.72,0,0,1,1346.37,336.9Z"/><path class="1553644a-7692-4df2-9341-3b5d916e05b5" d="M1442.58,338.06a10.09,10.09,0,0,1,.7,2.94,2,2,0,0,1-.62,1.71,4.07,4.07,0,0,1-2.2.74,40,40,0,0,1-4.11.17c-1.71,0-3.08,0-4.11-.13a9.3,9.3,0,0,1-2.32-.41,2.44,2.44,0,0,1-1.16-.79,6.44,6.44,0,0,1-.71-1.24l-9.21-26.15h-44.66l-8.8,25.81a4.35,4.35,0,0,1-.66,1.29,3.24,3.24,0,0,1-1.21.91,7.25,7.25,0,0,1-2.24.54,34.6,34.6,0,0,1-3.77.17,30.25,30.25,0,0,1-4-.21,4,4,0,0,1-2.16-.79,2.09,2.09,0,0,1-.58-1.7,10.49,10.49,0,0,1,.71-2.95l36-99.77a4.54,4.54,0,0,1,.88-1.5,3.58,3.58,0,0,1,1.57-.91,11.86,11.86,0,0,1,2.66-.45c1.08-.09,2.45-.13,4.11-.13s3.24,0,4.4.13a13,13,0,0,1,2.82.45,3.67,3.67,0,0,1,1.66,1,4.29,4.29,0,0,1,.91,1.53ZM1396.34,250h-.08l-18.51,53.54h37.35Z"/><path class="1553644a-7692-4df2-9341-3b5d916e05b5" d="M1541.69,337.23a6.5,6.5,0,0,1-.56,2.82,5.54,5.54,0,0,1-3.48,3,7.77,7.77,0,0,1-2.23.33h-4.72a14.59,14.59,0,0,1-3.9-.46,8.54,8.54,0,0,1-3.18-1.66,16.55,16.55,0,0,1-3-3.28,42.6,42.6,0,0,1-3.18-5.31l-32.77-61.09q-2.58-4.74-5.18-9.92t-4.86-10.09h-.17q.16,6,.25,12.21t.09,12.36V341a2,2,0,0,1-.36,1.12,2.16,2.16,0,0,1-1.18.83,12,12,0,0,1-2.19.5,28.61,28.61,0,0,1-6.92,0,11,11,0,0,1-2.14-.5,2.16,2.16,0,0,1-1.14-.83,2.05,2.05,0,0,1-.35-1.12V241.85q0-3.32,1.88-4.73a6.74,6.74,0,0,1,4.12-1.41h7a18,18,0,0,1,4.16.41,8.79,8.79,0,0,1,3,1.37,11.94,11.94,0,0,1,2.58,2.66,36.86,36.86,0,0,1,2.6,4.27l25.19,47.15q2.33,4.32,4.5,8.43t4.17,8.09c1.33,2.66,2.66,5.27,4,7.85s2.6,5.16,3.89,7.76h.08q-.17-6.56-.21-13.66t0-13.65V238.12a1.85,1.85,0,0,1,.35-1.08,2.73,2.73,0,0,1,1.18-.87,7.76,7.76,0,0,1,2.2-.54,30.23,30.23,0,0,1,3.54-.17,28.75,28.75,0,0,1,3.33.17,7.26,7.26,0,0,1,2.19.54,2.65,2.65,0,0,1,1.14.87,1.85,1.85,0,0,1,.35,1.08Z"/><path class="1553644a-7692-4df2-9341-3b5d916e05b5" d="M1652.84,287.84a75.19,75.19,0,0,1-3.57,24.36,44.21,44.21,0,0,1-10.42,17.27A43.08,43.08,0,0,1,1622,339.72q-10,3.4-23.74,3.4h-22.74a5.85,5.85,0,0,1-3.61-1.29q-1.71-1.27-1.71-4.52V241.52q0-3.24,1.71-4.52a5.85,5.85,0,0,1,3.61-1.29h24.32q13.95,0,23.57,3.61a43.09,43.09,0,0,1,16.15,10.38,44.48,44.48,0,0,1,9.88,16.39A65.78,65.78,0,0,1,1652.84,287.84Zm-15,.58a58.54,58.54,0,0,0-2.16-16.23,34.69,34.69,0,0,0-6.76-13,31.33,31.33,0,0,0-11.66-8.55q-7.07-3.08-18.18-3.07h-14.53v83.59h14.69a50.81,50.81,0,0,0,17.35-2.58,28.51,28.51,0,0,0,11.79-7.88,34.38,34.38,0,0,0,7.1-13.32A67.69,67.69,0,0,0,1637.81,288.42Z"/><path class="2add15ae-6936-4c00-87be-a95b58574215" d="M126.1,290.28q0,15.63-4.09,26.76a45.39,45.39,0,0,1-11.73,18.15,46.9,46.9,0,0,1-18.59,10.32q-10.93,3.3-26.06,3.3H38.47a7.17,7.17,0,0,1-4.87-1.71q-2-1.73-2-5.58V242.37q0-3.85,2-5.58a7.17,7.17,0,0,1,4.87-1.71H67.65q15.21,0,25.8,3.56a46.65,46.65,0,0,1,17.84,10.55,45.08,45.08,0,0,1,11,17.27A68.83,68.83,0,0,1,126.1,290.28Zm-23.9.79a57.49,57.49,0,0,0-1.89-15,32.13,32.13,0,0,0-6.07-12,28.18,28.18,0,0,0-10.72-8q-6.55-2.85-17.18-2.85H54.65v77.34h12a45.4,45.4,0,0,0,16-2.46,26.74,26.74,0,0,0,10.86-7.43,32,32,0,0,0,6.5-12.35A61.55,61.55,0,0,0,102.2,291.07Z"/><path class="2add15ae-6936-4c00-87be-a95b58574215" d="M168.29,345.65a2.46,2.46,0,0,1-.57,1.58,4,4,0,0,1-1.89,1.14,18.24,18.24,0,0,1-3.52.7,58.21,58.21,0,0,1-11.2,0,18.26,18.26,0,0,1-3.56-.7,4,4,0,0,1-1.89-1.14,2.46,2.46,0,0,1-.57-1.58V238.24a2.46,2.46,0,0,1,.57-1.58,4,4,0,0,1,1.93-1.14,19.25,19.25,0,0,1,3.56-.7,46.74,46.74,0,0,1,5.54-.27,47.63,47.63,0,0,1,5.62.27,18.24,18.24,0,0,1,3.52.7,4,4,0,0,1,1.89,1.14,2.46,2.46,0,0,1,.57,1.58Z"/><path class="2add15ae-6936-4c00-87be-a95b58574215" d="M271.74,331.58c0,1.47-.05,2.71-.14,3.74a18.19,18.19,0,0,1-.39,2.64,7.85,7.85,0,0,1-.7,1.89,10.22,10.22,0,0,1-1.41,1.8,18,18,0,0,1-3.74,2.59,43.66,43.66,0,0,1-6.76,3,59.38,59.38,0,0,1-9.14,2.42,60.66,60.66,0,0,1-11.12,1,58.63,58.63,0,0,1-21.1-3.61,41.62,41.62,0,0,1-16-10.76,48,48,0,0,1-10.11-17.89,80.33,80.33,0,0,1-3.52-25,79,79,0,0,1,3.87-25.75,53.67,53.67,0,0,1,10.81-18.9A45.24,45.24,0,0,1,219,237.19a56.16,56.16,0,0,1,21.4-4,51.29,51.29,0,0,1,9.14.8,54.82,54.82,0,0,1,8.13,2.06,40.09,40.09,0,0,1,6.72,2.95,20.18,20.18,0,0,1,4.18,2.85,9.63,9.63,0,0,1,1.62,2,7.29,7.29,0,0,1,.71,2,24.1,24.1,0,0,1,.39,2.9c.09,1.11.13,2.49.13,4.13s-.05,3.25-.17,4.48a11.37,11.37,0,0,1-.62,3,4.07,4.07,0,0,1-1,1.67,2.11,2.11,0,0,1-1.41.53,6.07,6.07,0,0,1-3.34-1.54,55.61,55.61,0,0,0-5.23-3.43,42.43,42.43,0,0,0-7.64-3.42,32.33,32.33,0,0,0-10.59-1.54,25,25,0,0,0-21.14,10.68,37.07,37.07,0,0,0-5.67,12.43,72.59,72.59,0,0,0,.13,33.8,33.5,33.5,0,0,0,5.89,12.08,23.72,23.72,0,0,0,9.23,7.08,30.5,30.5,0,0,0,12.17,2.33,35,35,0,0,0,10.64-1.45,45.47,45.47,0,0,0,7.69-3.21q3.19-1.75,5.27-3.17a6.61,6.61,0,0,1,3.21-1.4,2.07,2.07,0,0,1,2.28,1.76,13.48,13.48,0,0,1,.53,2.94C271.68,327.79,271.74,329.47,271.74,331.58Z"/><path class="2add15ae-6936-4c00-87be-a95b58574215" d="M377.12,345.65a2.46,2.46,0,0,1-.57,1.58,4,4,0,0,1-1.89,1.14,18.4,18.4,0,0,1-3.52.7,46.74,46.74,0,0,1-5.54.27,49,49,0,0,1-5.67-.27,17.35,17.35,0,0,1-3.51-.7,4,4,0,0,1-1.85-1.14,2.46,2.46,0,0,1-.57-1.58v-46H311.46v46a2.58,2.58,0,0,1-.52,1.58,3.72,3.72,0,0,1-1.85,1.14,18.24,18.24,0,0,1-3.52.7,58.21,58.21,0,0,1-11.2,0,18.26,18.26,0,0,1-3.56-.7,4,4,0,0,1-1.89-1.14,2.46,2.46,0,0,1-.57-1.58V238.24a2.46,2.46,0,0,1,.57-1.58,4,4,0,0,1,1.89-1.14,18.26,18.26,0,0,1,3.56-.7,58.21,58.21,0,0,1,11.2,0,18.24,18.24,0,0,1,3.52.7,3.72,3.72,0,0,1,1.85,1.14,2.58,2.58,0,0,1,.52,1.58V280H354V238.24a2.46,2.46,0,0,1,.57-1.58,4,4,0,0,1,1.85-1.14,17.35,17.35,0,0,1,3.51-.7,49,49,0,0,1,5.67-.27,46.74,46.74,0,0,1,5.54.27,18.4,18.4,0,0,1,3.52.7,4,4,0,0,1,1.89,1.14,2.46,2.46,0,0,1,.57,1.58Z"/></g></svg>